<?xml version="1.0" standalone="no"?>
<!DOCTYPE svg PUBLIC "-//W3C//DTD SVG 1.1//EN" "http://www.w3.org/Graphics/SVG/1.1/DTD/svg11.dtd" >
<svg xmlns="http://www.w3.org/2000/svg">
<metadata>Generated by IcoMoon</metadata>
<defs>
<font id="icomoon" horiz-adv-x="1024">
<font-face units-per-em="1024" ascent="960" descent="-64" />
<missing-glyph horiz-adv-x="1024" />
<glyph unicode="&#x20;" d="" horiz-adv-x="512" />
<glyph unicode="&#xe600;" d="M511.978 207.927c-11.336 0-22.672 4.34-31.307 12.974l-313.82 313.776c-17.314 17.27-17.314 45.3 0 62.613s45.3 17.314 62.613 0l282.513-282.469 282.558 282.469c17.314 17.314 45.3 17.314 62.613 0s17.314-45.344 0-62.613l-313.864-313.776c-8.679-8.679-20.015-12.974-31.307-12.974z" />
<glyph unicode="&#xe601;" d="M825.798 329.213c-11.336 0-22.672 4.34-31.307 12.974l-282.469 282.469-282.558-282.469c-17.314-17.314-45.3-17.314-62.613 0s-17.314 45.3 0 62.613l313.864 313.776c17.314 17.314 45.3 17.314 62.613 0l313.776-313.776c17.314-17.314 17.314-45.3 0-62.613-8.635-8.635-19.971-12.974-31.307-12.974z" />
<glyph unicode="&#xe602;" d="M607.625 81.018c-11.336 0-22.672 4.34-31.307 12.974l-313.776 313.82c-17.314 17.314-17.314 45.3 0 62.613l313.776 313.776c17.314 17.314 45.3 17.314 62.613 0s17.314-45.3 0-62.613l-282.469-282.469 282.469-282.513c17.314-17.314 17.314-45.3 0-62.613-8.679-8.635-19.971-12.974-31.307-12.974z" />
<glyph unicode="&#xe603;" d="M316.058 396.16c-134.093 0-243.174 109.107-243.174 243.2s109.082 243.174 243.174 243.174c106.496 0 199.654-68.147 231.834-169.6 4.275-13.466-3.174-27.853-16.666-32.128-13.44-4.25-27.853 3.174-32.128 16.666-25.395 80.051-98.944 133.862-183.014 133.862-105.856 0-191.974-86.118-191.974-191.974 0-105.882 86.118-192 191.974-192 14.131 0 25.6-11.469 25.6-25.6-0.026-14.157-11.494-25.6-25.626-25.6zM319.718 598.989c-8.73 0-17.229 4.454-22.016 12.518l-69.222 116.403c-7.219 12.16-3.251 27.853 8.909 35.098 12.134 7.245 27.853 3.251 35.098-8.909l69.222-116.403c7.219-12.16 3.226-27.853-8.909-35.098-4.122-2.432-8.627-3.61-13.082-3.61zM326.374 601.395c-8.73 0-17.229 4.454-22.016 12.518-7.219 12.16-3.226 27.853 8.909 35.098l65.28 38.835c12.134 7.245 27.853 3.251 35.098-8.909 7.219-12.16 3.226-27.853-8.909-35.098l-65.28-38.835c-4.122-2.432-8.627-3.61-13.082-3.61zM817.050-12.16h-371.866c-13.568 0-24.781 10.598-25.574 24.141l-29.414 518.272c-0.41 7.014 2.125 13.901 6.938 19.046 4.838 5.12 11.571 8.013 18.611 8.013h430.259c7.014 0 13.773-2.893 18.611-8.013s7.347-11.981 6.938-19.021l-28.954-518.246c-0.742-13.594-11.981-24.192-25.549-24.192zM469.35 39.040h323.482l26.086 467.072h-376.064l26.496-467.072zM925.542 506.138h-73.446c-14.157 0-25.6 11.469-25.6 25.6s11.443 25.6 25.6 25.6h73.446c14.157 0 25.6-11.469 25.6-25.6s-11.443-25.6-25.6-25.6zM410.445 506.138h-74.214c-14.131 0-25.6 11.469-25.6 25.6s11.469 25.6 25.6 25.6h74.214c14.131 0 25.6-11.469 25.6-25.6s-11.469-25.6-25.6-25.6zM723.354 511.155c-14.157 0-25.6 11.469-25.6 25.6v40.448h-133.709v-40.448c0-14.131-11.443-25.6-25.6-25.6-14.131 0-25.6 11.469-25.6 25.6v66.048c0 14.131 11.469 25.6 25.6 25.6h184.909c14.157 0 25.6-11.469 25.6-25.6v-66.048c0-14.131-11.443-25.6-25.6-25.6zM548.787 102.349c-6.733 0-12.339 5.222-12.774 12.006l-20.659 332.211c-0.435 7.066 4.915 13.133 11.981 13.568 7.424 0.154 13.133-4.941 13.568-11.981l20.659-332.211c0.461-7.040-4.915-13.133-11.981-13.568-0.282-0.026-0.563-0.026-0.794-0.026zM713.037 102.349c-0.256 0-0.538 0-0.794 0.026-7.040 0.461-12.416 6.528-11.981 13.568l20.685 332.211c0.435 7.040 5.99 12.416 13.568 11.981 7.040-0.435 12.416-6.502 11.981-13.568l-20.685-332.211c-0.435-6.784-6.067-12.006-12.774-12.006zM630.912 102.349c-7.066 0-12.8 5.734-12.8 12.8v332.211c0 7.066 5.734 12.8 12.8 12.8s12.8-5.734 12.8-12.8v-332.211c0-7.066-5.734-12.8-12.8-12.8z" />
<glyph unicode="&#xe604;" d="M512 157.338c-6.554 0-13.107 2.509-18.099 7.501l-384 384c-10.010 10.010-10.010 26.189 0 36.198s26.189 10.010 36.198 0l365.901-365.875 365.901 365.901c10.010 10.010 26.189 10.010 36.198 0s10.010-26.189 0-36.198l-384-384c-4.992-5.018-11.546-7.526-18.099-7.526z" />
<glyph unicode="&#xe605;" d="M391.245 248.166c-79.667 0-154.598 31.027-210.918 87.373-116.275 116.301-116.275 305.536 0 421.837 56.346 56.346 131.251 87.373 210.918 87.373s154.573-31.027 210.918-87.373c116.301-116.301 116.301-305.536 0-421.837-56.346-56.346-131.226-87.373-210.918-87.373zM391.245 793.549c-65.997 0-128.051-25.702-174.72-72.371-96.307-96.333-96.307-253.082 0-349.414 46.669-46.669 108.723-72.371 174.72-72.371s128.051 25.702 174.72 72.371c96.333 96.333 96.333 253.082 0 349.414-46.669 46.669-108.723 72.371-174.72 72.371zM641.28 268.902c-6.554 0-13.107 2.509-18.099 7.501l-53.581 53.606c-10.010 10.010-10.010 26.189 0 36.198s26.189 10.010 36.198 0l53.581-53.606c10.010-10.010 10.010-26.189 0-36.198-4.992-4.992-11.546-7.501-18.099-7.501zM830.054 25.626c-6.554 0-13.107 2.509-18.099 7.501l-211.354 211.354c-10.010 10.010-10.010 26.189 0 36.198l56.525 56.525c10.010 10.010 26.189 10.010 36.198 0l211.354-211.354c10.010-10.010 10.010-26.189 0-36.198l-56.525-56.525c-4.992-4.992-11.546-7.501-18.099-7.501zM654.899 262.579l175.155-175.155 20.326 20.326-175.155 175.155-20.326-20.326z" />
<glyph unicode="&#xe606;" d="M537.498 30.054c-223.411 0-405.146 181.76-405.146 405.12 0 223.411 181.76 405.146 405.146 405.146s405.146-181.76 405.146-405.146c0-223.386-181.734-405.12-405.146-405.12zM537.498 789.12c-195.174 0-353.946-158.797-353.946-353.946s158.771-353.92 353.946-353.92 353.946 158.771 353.946 353.92c0 195.174-158.771 353.946-353.946 353.946zM789.658 416.998c-0.128 0-0.307 0-0.512 0h-503.296c-14.131 0-25.6 11.469-25.6 25.6 0 152.883 124.365 277.248 277.248 277.248 151.066 0 274.33-121.472 277.197-271.898 0.384-1.715 0.538-3.533 0.538-5.35 0.026-14.131-11.443-25.6-25.574-25.6zM312.883 468.198h449.229c-12.749 112.64-108.621 200.448-224.589 200.448-116.019 0-211.866-87.808-224.64-200.448zM537.498 332.237c-14.131 0-25.6 11.443-25.6 25.6v225.024c0 14.131 11.469 25.6 25.6 25.6 14.157 0 25.6-11.469 25.6-25.6v-225.024c0-14.157-11.443-25.6-25.6-25.6zM599.296 344.499c0-33.565-27.21-60.774-60.774-60.774s-60.774 27.21-60.774 60.774c0 33.565 27.21 60.774 60.774 60.774s60.774-27.21 60.774-60.774zM640.307 137.318h-203.546c-25.395 0-46.054 20.659-46.054 46.029s20.659 46.029 46.054 46.029h203.546c25.37 0 46.003-20.659 46.003-46.029s-20.634-46.029-46.003-46.029zM436.762 203.776c-11.264 0-20.454-9.165-20.454-20.429s9.165-20.429 20.454-20.429h203.546c11.238 0 20.403 9.165 20.403 20.429s-9.139 20.429-20.403 20.429h-203.546zM494.208 137.318c-7.066 0-12.8 5.734-12.8 12.8v66.458c0 7.066 5.734 12.8 12.8 12.8s12.8-5.734 12.8-12.8v-66.458c0-7.066-5.734-12.8-12.8-12.8zM578.458 137.318c-7.066 0-12.8 5.734-12.8 12.8v61.286c0 7.066 5.734 12.8 12.8 12.8s12.8-5.734 12.8-12.8v-61.286c0-7.066-5.734-12.8-12.8-12.8z" />
<glyph unicode="&#xe607;" d="M362.175 77.121c-11.336 0-22.672 4.34-31.307 12.974-17.314 17.314-17.314 45.3 0 62.613l282.469 282.513-282.469 282.469c-17.314 17.314-17.314 45.3 0 62.613s45.3 17.314 62.613 0l313.776-313.776c17.314-17.314 17.314-45.3 0-62.613l-313.776-313.82c-8.679-8.679-19.971-12.974-31.307-12.974z" />
<glyph unicode="&#xe608;" d="M512 66.816c-183.501 0-332.8 154.496-332.8 344.397 0 137.779 79.027 261.99 201.318 316.467 12.928 5.709 28.058-0.051 33.792-12.979s-0.051-28.058-12.979-33.792c-103.834-46.234-170.931-152.090-170.931-269.696 0-161.664 126.336-293.197 281.6-293.197s281.6 131.533 281.6 293.197c0 117.453-66.995 223.258-170.701 269.568-12.902 5.76-18.688 20.89-12.928 33.818 5.76 12.902 20.813 18.688 33.818 12.928 122.112-54.502 201.011-178.688 201.011-316.314 0-189.875-149.299-344.397-332.8-344.397zM512 463.514c-14.131 0-25.6 11.469-25.6 25.6v320.102c0 14.131 11.469 25.6 25.6 25.6s25.6-11.469 25.6-25.6v-320.102c0-14.131-11.469-25.6-25.6-25.6z" />
<glyph unicode="&#xe609;" d="M231.782 101.862c-6.682 0-13.235 2.637-18.099 7.501-6.707 6.707-9.165 16.563-6.374 25.626l64.486 209.306c1.229 3.994 3.405 7.629 6.374 10.573l406.17 406.17c4.813 4.813 11.29 7.501 18.099 7.501v0c6.81 0 13.312-2.688 18.099-7.501l144.794-144.819c10.010-10.010 10.010-26.189 0-36.198l-406.144-406.195c-2.944-2.944-6.579-5.12-10.573-6.374l-209.306-64.486c-2.483-0.742-5.018-1.101-7.526-1.101zM318.848 323.149l-48.358-157.005 156.979 48.384 383.59 383.565-108.595 108.621-383.616-383.565zM441.088 166.323c-9.216 0-18.125 4.966-22.682 13.696l-46.157 87.962-87.91 46.106c-12.518 6.579-17.357 22.042-10.778 34.586 6.579 12.493 22.067 17.306 34.56 10.778l94.976-49.818c4.608-2.432 8.371-6.17 10.778-10.778l49.843-95.002c6.579-12.518 1.741-28.006-10.752-34.586-3.789-1.997-7.859-2.944-11.878-2.944zM766.029 491.264c-6.554 0-13.107 2.509-18.099 7.501l-144.845 144.794c-10.010 9.984-10.010 26.189 0 36.198s26.189 10.010 36.198 0l144.845-144.794c10.010-9.984 10.010-26.189 0-36.198-4.992-4.992-11.546-7.501-18.099-7.501z" />
<glyph unicode="&#xe60a;" d="M660.198 113.152c-177.562 0-321.997 144.486-321.997 322.048s144.435 322.022 321.997 322.022c177.587 0 322.048-144.461 322.048-322.022 0-177.587-144.461-322.048-322.048-322.048zM660.198 706.022c-149.325 0-270.797-121.498-270.797-270.822 0-149.35 121.472-270.848 270.797-270.848 149.35 0 270.848 121.498 270.848 270.848 0 149.325-121.498 270.822-270.848 270.822zM363.802 113.152c-177.587 0-322.048 144.486-322.048 322.048s144.461 322.022 322.048 322.022c177.536 0 321.997-144.461 321.997-322.022 0-177.587-144.461-322.048-321.997-322.048zM363.802 706.022c-149.325 0-270.848-121.498-270.848-270.822 0-149.35 121.498-270.848 270.848-270.848 149.325 0 270.797 121.498 270.797 270.848 0 149.325-121.472 270.822-270.797 270.822z" />
<glyph unicode="&#xe60b;" d="M827.655 672.103l-206.078-395.702c-6.354 3.413-13.233 7.142-20.41 11.115 22.090 40.575 34.658 87.066 34.658 136.446 0 157.889-128.481 277.985-286.317 277.985s-286.265-120.114-286.265-277.985c0-157.871 128.411-277.915 286.265-277.915 64.958 0 124.928 13.443 173.030 50.010 55.821-31.175 95.048-50.832 97.744-52.163 8.437-4.236 17.434-6.214 26.291-6.214 21.303 0 41.923 11.623 52.408 31.788l261.776 502.635h-133.102zM349.508 592.196c92.79 0 146.056-75.478 146.056-168.234 0-24.506-3.763-47.787-10.975-68.862-9.365 5.776-18.8 11.693-28.304 17.697-85.578 54.333-160.444 70-222.427 46.544-10.975-4.149-20.795-9.277-29.512-14.914-0.578 6.389-0.858 12.883-0.858 19.517 0 92.79 53.301 168.251 146.021 168.251zM349.508 255.711c-38.737 0-70.56 13.216-94.488 35.289 3.763 6.091 10.398 14.038 20.585 17.907 24.348 9.19 67.111-3.816 117.436-35.744 3.833-2.468 7.632-4.831 11.448-7.264-16.349-6.582-34.711-10.187-54.981-10.187z" />
<glyph unicode="&#xe60c;" d="M367.872 316.672c0-6.758-5.479-12.237-12.237-12.237s-12.237 5.479-12.237 12.237c0 6.758 5.479 12.237 12.237 12.237s12.237-5.479 12.237-12.237zM414.208 270.336c0-6.758-5.479-12.237-12.237-12.237s-12.237 5.479-12.237 12.237c0 6.758 5.479 12.237 12.237 12.237s12.237-5.479 12.237-12.237zM322.611 271.411c0-6.758-5.479-12.237-12.237-12.237s-12.237 5.479-12.237 12.237c0 6.758 5.479 12.237 12.237 12.237s12.237-5.479 12.237-12.237zM368.947 225.050c0-6.758-5.479-12.237-12.237-12.237s-12.237 5.479-12.237 12.237c0 6.758 5.479 12.237 12.237 12.237s12.237-5.479 12.237-12.237zM275.686 224.486c0-6.744-5.467-12.211-12.211-12.211s-12.211 5.467-12.211 12.211c0 6.744 5.467 12.211 12.211 12.211s12.211-5.467 12.211-12.211zM322.048 178.15c0-6.758-5.479-12.237-12.237-12.237s-12.237 5.479-12.237 12.237c0 6.758 5.479 12.237 12.237 12.237s12.237-5.479 12.237-12.237zM726.246 673.792c0-6.744-5.467-12.211-12.211-12.211s-12.211 5.467-12.211 12.211c0 6.744 5.467 12.211 12.211 12.211s12.211-5.467 12.211-12.211zM772.582 627.43c0-6.744-5.467-12.211-12.211-12.211s-12.211 5.467-12.211 12.211c0 6.744 5.467 12.211 12.211 12.211s12.211-5.467 12.211-12.211zM681.011 628.531c0-6.758-5.479-12.237-12.237-12.237s-12.237 5.479-12.237 12.237c0 6.758 5.479 12.237 12.237 12.237s12.237-5.479 12.237-12.237zM727.322 582.17c0-6.744-5.467-12.211-12.211-12.211s-12.211 5.467-12.211 12.211c0 6.744 5.467 12.211 12.211 12.211s12.211-5.467 12.211-12.211zM634.112 581.632c0-6.758-5.479-12.237-12.237-12.237s-12.237 5.479-12.237 12.237c0 6.758 5.479 12.237 12.237 12.237s12.237-5.479 12.237-12.237zM680.448 535.27c0-6.758-5.479-12.237-12.237-12.237s-12.237 5.479-12.237 12.237c0 6.758 5.479 12.237 12.237 12.237s12.237-5.479 12.237-12.237zM282.906 33.792c-44.006 0-85.402 17.126-116.531 48.256-64.23 64.282-64.23 168.858 0 233.088l457.984 458.010c31.13 31.13 72.525 48.256 116.557 48.256 44.006 0 85.402-17.126 116.531-48.256 64.23-64.282 64.23-168.858 0-233.088l-457.984-458.010c-31.155-31.13-72.525-48.256-116.557-48.256zM740.89 770.202c-30.362 0-58.906-11.802-80.358-33.254l-457.958-458.010c-44.262-44.288-44.262-116.378 0-160.691 21.453-21.427 49.971-33.254 80.333-33.254s58.88 11.827 80.358 33.254l457.958 458.010c44.262 44.288 44.262 116.378 0 160.717-21.453 21.427-49.997 33.229-80.333 33.229zM541.978 235.213c-6.554 0-13.107 2.509-18.099 7.501l-196.838 196.838c-10.010 10.010-10.010 26.189 0 36.198l136.678 136.704c9.6 9.6 26.598 9.6 36.198 0l196.864-196.864c4.813-4.813 7.501-11.29 7.501-18.099s-2.688-13.312-7.501-18.099l-136.704-136.678c-4.992-4.992-11.546-7.501-18.099-7.501zM381.338 457.677l160.64-160.64 100.506 100.48-160.666 160.666-100.48-100.506z" />
<glyph unicode="&#xe60d;" d="M274.483 233.523c-14.131 0-25.6 11.443-25.6 25.6v134.554c0 14.157 11.469 25.6 25.6 25.6s25.6-11.443 25.6-25.6v-134.554c0-14.157-11.469-25.6-25.6-25.6zM785.075 123.366h-546.15c-14.131 0-25.6 11.443-25.6 25.6s11.469 25.6 25.6 25.6h546.15c14.157 0 25.6-11.443 25.6-25.6s-11.443-25.6-25.6-25.6zM429.491 233.523c-14.131 0-25.6 11.443-25.6 25.6v243.2c0 14.131 11.469 25.6 25.6 25.6s25.6-11.469 25.6-25.6v-243.2c0-14.157-11.443-25.6-25.6-25.6zM739.533 233.523c-14.157 0-25.6 11.443-25.6 25.6v462.285c0 14.131 11.443 25.6 25.6 25.6s25.6-11.469 25.6-25.6v-462.285c0-14.157-11.469-25.6-25.6-25.6zM585.651 233.523c-14.157 0-25.6 11.443-25.6 25.6v393.139c0 14.131 11.443 25.6 25.6 25.6s25.6-11.469 25.6-25.6v-393.114c0-14.182-11.443-25.626-25.6-25.626z" />
<glyph unicode="&#xe60e;" d="M512 96.055c-29.005 0-52.513 23.508-52.513 52.513v573.265c0 29.005 23.508 52.513 52.513 52.513s52.513-23.508 52.513-52.513v-573.265c0-29.005-23.508-52.513-52.513-52.513zM781.128 382.687h-538.256c-29.005 0-52.513 23.508-52.513 52.513s23.508 52.513 52.513 52.513h538.256c29.005 0 52.513-23.508 52.513-52.513s-23.508-52.513-52.513-52.513z" />
<glyph unicode="&#xe60f;" d="M668.288 562.688c-69.53 0-126.106 56.55-126.106 126.080 0 69.555 56.576 126.131 126.106 126.131s126.106-56.576 126.106-126.131c0-69.504-56.576-126.080-126.106-126.080zM668.288 763.699c-41.293 0-74.906-33.613-74.906-74.931 0-41.293 33.587-74.88 74.906-74.88s74.906 33.587 74.906 74.88c0 41.318-33.587 74.931-74.906 74.931zM211.277 282.342c-69.53 0-126.106 56.602-126.106 126.157 0 69.53 56.55 126.106 126.106 126.106s126.106-56.55 126.106-126.106c0-69.555-56.55-126.157-126.106-126.157zM211.277 483.405c-41.293 0-74.906-33.587-74.906-74.906s33.587-74.957 74.906-74.957 74.906 33.613 74.906 74.957c0 41.293-33.587 74.906-74.906 74.906zM668.288-4.301c-69.53 0-126.106 56.576-126.106 126.106s56.576 126.106 126.106 126.106 126.106-56.576 126.106-126.106-56.576-126.106-126.106-126.106zM668.288 196.71c-41.293 0-74.906-33.587-74.906-74.906s33.587-74.906 74.906-74.906 74.906 33.587 74.906 74.906-33.587 74.906-74.906 74.906zM582.886 148.25c-4.685 0-9.37 1.28-13.619 3.942l-286.976 180.89c-11.955 7.526-15.539 23.347-8.013 35.302 7.526 11.981 23.347 15.565 35.302 7.987l286.976-180.89c11.955-7.526 15.539-23.347 7.987-35.302-4.838-7.706-13.158-11.93-21.658-11.93zM293.939 438.042c-8.832 0-17.408 4.557-22.17 12.749-7.091 12.237-2.944 27.904 9.293 34.995l289.843 168.141c12.288 7.091 27.93 2.918 34.995-9.293 7.091-12.237 2.918-27.904-9.293-34.995l-289.843-168.141c-4.045-2.33-8.474-3.456-12.826-3.456z" />
<glyph unicode="&#xe610;" d="M896 102.426h-768c-14.131 0-25.6 11.443-25.6 25.6v614.349c0 14.131 11.469 25.6 25.6 25.6h768c14.157 0 25.6-11.469 25.6-25.6v-614.349c0-14.157-11.443-25.6-25.6-25.6zM153.6 153.626h716.8v563.149h-716.8v-563.149zM891.162 533.376h-763.162c-14.131 0-25.6 11.469-25.6 25.6s11.469 25.6 25.6 25.6h763.136c14.157 0 25.6-11.469 25.6-25.6s-11.443-25.6-25.574-25.6zM259.738 650.573c0-12.928-10.496-23.424-23.424-23.424-12.954 0-23.424 10.496-23.424 23.424s10.47 23.424 23.424 23.424c12.928 0 23.424-10.496 23.424-23.424zM350.925 650.573c0-12.928-10.496-23.424-23.424-23.424-12.954 0-23.424 10.496-23.424 23.424s10.47 23.424 23.424 23.424c12.928 0 23.424-10.496 23.424-23.424zM442.112 650.573c0-12.928-10.496-23.424-23.424-23.424-12.979 0-23.424 10.496-23.424 23.424s10.445 23.424 23.424 23.424c12.902 0 23.424-10.496 23.424-23.424z" />
<glyph unicode="&#xe611;" d="M195.072 79.718c-4.89 0-9.728 1.408-13.901 4.096-5.709 3.712-9.702 9.498-11.136 16.154l-79.642 372.045c-2.944 13.824 5.862 27.443 19.686 30.413l133.837 28.672c13.85 2.97 27.443-5.862 30.413-19.686s-5.862-27.443-19.686-30.413l-108.8-23.322 68.941-321.971 128.589 27.546c13.824 3.072 27.418-5.862 30.413-19.661 2.97-13.824-5.862-27.443-19.686-30.413l-153.651-32.87c-1.792-0.384-3.584-0.589-5.376-0.589zM558.899 96.896c-4.454 0-8.96 1.152-13.056 3.584l-327.168 194.176c-5.837 3.482-10.061 9.114-11.725 15.693-1.69 6.579-0.666 13.542 2.79 19.405l168.678 284.16c7.219 12.16 22.912 16.179 35.072 8.96s16.154-22.938 8.96-35.072l-155.648-262.17 283.162-168.038 53.274 89.805c7.219 12.16 22.938 16.128 35.098 8.96 12.16-7.219 16.154-22.938 8.96-35.098l-66.355-111.795c-4.787-8.090-13.286-12.57-22.042-12.57zM872.883 305.562h-380.467c-14.131 0-25.6 11.443-25.6 25.6v380.467c0 14.131 11.469 25.6 25.6 25.6h380.442c14.157 0 25.6-11.469 25.6-25.6v-380.467c0.026-14.157-11.443-25.6-25.574-25.6zM518.016 356.762h329.242v329.267h-329.242v-329.267z" />
<glyph unicode="&#xe612;" d="M500.557 10.547c-8.141 0-15.821 3.866-20.634 10.445l-49.126 66.918c-8.781 12.8-13.184 26.854-13.184 41.242 0 23.219 11.264 44.851 30.925 59.392 11.366 8.397 27.392 5.939 35.789-5.376 8.397-11.366 5.99-27.392-5.376-35.814-3.789-2.79-10.163-8.909-10.163-18.202 0-4.096 1.254-7.987 3.738-11.622l27.981-38.093 28.416 38.81c1.997 2.944 3.251 6.861 3.251 10.931 0 6.989-3.866 13.773-10.65 18.56-11.546 8.166-14.285 24.141-6.118 35.686 8.141 11.52 24.141 14.31 35.686 6.118 20.531-14.49 32.282-36.506 32.282-60.339 0-14.362-4.378-28.339-12.646-40.474l-49.562-67.686c-4.787-6.605-12.442-10.496-20.608-10.496v0zM321.306 174.003c-3.558 0-7.142 0.742-10.522 2.278-9.165 4.122-15.078 13.261-15.078 23.322v163.891c0 7.347 3.149 14.336 8.653 19.2l98.97 87.322c10.598 9.344 26.778 8.346 36.147-2.253s8.346-26.778-2.253-36.147l-90.317-79.667v-95.616l56.653 49.997c10.598 9.37 26.778 8.371 36.147-2.278 9.344-10.598 8.346-26.778-2.253-36.122l-99.2-87.526c-4.787-4.198-10.829-6.4-16.947-6.4zM579.046 234.624h-157.107c-14.131 0-25.6 11.443-25.6 25.6v439.501c0 5.555 1.792 10.957 5.146 15.386l78.541 104.448c9.677 12.851 31.258 12.851 40.934 0l78.541-104.448c3.354-4.429 5.146-9.83 5.146-15.386v-439.501c0-14.157-11.443-25.6-25.6-25.6zM447.539 285.824h105.907v405.35l-52.941 70.4-52.941-70.4v-405.35zM679.731 174.003c-6.118 0-12.186 2.202-16.922 6.4l-99.226 87.526c-10.624 9.344-11.622 25.523-2.278 36.122 9.37 10.624 25.6 11.597 36.122 2.278l56.704-49.997v95.616l-90.317 79.667c-10.624 9.344-11.622 25.549-2.278 36.147s25.574 11.571 36.122 2.253l98.995-87.322c5.53-4.838 8.678-11.853 8.678-19.2v-163.891c0-10.086-5.888-19.2-15.078-23.322-3.379-1.536-6.963-2.278-10.522-2.278zM579.072 423.936h-157.133c-14.131 0-25.6 11.469-25.6 25.6s11.469 25.6 25.6 25.6h157.133c14.157 0 25.6-11.469 25.6-25.6s-11.443-25.6-25.6-25.6z" />
<glyph unicode="&#xe613;" d="M494.182 14.259c-3.072 0-6.144 0.538-9.062 1.638-13.158 4.992-322.483 128.742-324.326 706.611 0 0.23 0 0.461 0 0.666 0 0.179 0 0.358 0 0.538 0 23.757 32.486 79.002 333.363 79.002 100.25 0 333.389-7.706 333.389-79.002 0-0.512-0.026-1.050-0.051-1.562-2.125-513.792-307.507-696.909-320.512-704.461-3.917-2.253-8.346-3.43-12.8-3.43zM212.019 717.056c1.92-279.782 80.794-442.394 146.867-529.69 54.784-72.371 109.978-106.214 133.146-118.246 52.685 37.12 280.627 222.259 284.262 647.987-21.325 13.158-116.992 34.432-282.138 34.432-165.222-0.026-260.941-21.325-282.138-34.483zM494.157 142.054c-7.066 0-12.8 5.734-12.8 12.8v548.275c0 7.066 5.734 12.8 12.8 12.8s12.8-5.734 12.8-12.8v-548.275c0-7.091-5.734-12.8-12.8-12.8z" />
<glyph unicode="&#xe614;" d="M895.949 182.938c-6.554 0-13.107 2.509-18.099 7.501l-365.875 365.901-365.901-365.901c-10.010-10.010-26.189-10.010-36.198 0s-10.010 26.189 0 36.198l384 384c9.6 9.6 26.598 9.6 36.198 0l384-384c10.010-10.010 10.010-26.189 0-36.198-5.018-4.992-11.571-7.501-18.125-7.501z" />
</font>
</defs>
</svg>
